/* XPM */
static char *Bitrig_1bpp[] = {
/* columns rows colors chars-per-pixel */
"135 135 2 1 ",
"  c #FFFFFF",
". c #000000",
/* pixels */
"                                                                           .   .....  .  ....  .  ...          .   ....   ...   ..     ",
"                                                                           .   .  .   .. . .. ...   .        . .   .   . .   . . .     ",
"                                                                   ..    ..... .... ....... ... .   .          .   .   ...  .    .     ",
"                                   .   ....    .   ....    .      . ..  .  .  . . ... .   ...  .    .          .   ...   . . .   .     ",
"                                 . .   .  .  . .   .  .  ...        .   .   .   . . . . .. ..       .             .    . .  .    .     ",
"                                   .   .   .   ..      .   .        .  . .. .   .........    ...  .....        ..  .. .. .   .   .     ",
"                                   .   . . .   .  .. . .   .        .   .  ..   .  .   ..                    .....  ..   ....  .....   ",
"                              .    ..  . . .   .   .   .   .        .   .   .   .   .                                                  ",
"                            ...    .   .   .   .   .  ..   .      .....  ..   .....  ...                                               ",
"                              .  .....  ...  .....  ..   .....                                                                         ",
"                              .                                                                                                        ",
"                              .                .   ....    .    ...    .   ....   ...    .                                             ",
"                              .              ...   .  .  . .   .  .  . .   .  .  .  .  ...                                             ",
"                            .....   ..    ...  .  .    .   .   .   .   ..      . .   .   .                                             ",
"                                   . .   .  .     .... .   .........   .  .. . . ....    .                                             ",
"                                     .   .   . .   .   .   .........   .   .   . .   .   .     ...   ..    ...    .                    ",
"                                     .  . .. . .   .  .    .........   .   .   . .  ..   .    .   . . .   .   . ...                    ",
"                                     .   .   .....  ...  ........... .....  ...   ..   .....  .  .    .   .  .    .                    ",
"                                     .   .   .             .........                         .... .   .  .. . .   .                    ",
"                 .     .   ....    .....  ....   ..        ..........                            ..   .   .  ..   .                    ",
"               ...   . .   .  .              .. . .        ......... .                        .   .   .   .  .    .                    ",
"                 .     .   .   .         ..       .       .......... .                         ...  .....  ...  .....                  ",
"                 .     .. .  . .          ... .   .       ..........  .                                                                ",
"                 .     .   .  ..          .  ..   .      . .........   .                                                               ",
"                 .     .   .. ..          .   .   .     .  .........    .  ..    ...   ..    ..     .    ..     .                      ",
"               ..... .....  ....           ...  .....   .  .........    . . .   .   . . .   .  .. ...   .  .. ...                      ",
"                               .                       .   .........     .  .  ..  ..   .   .   .   .  ..  ..   .                      ",
"                                                       .   .........      . .   . . .   .  . ..     .   . .     .                      ",
"                               .   ..   ...    ..     .    .........     .. .   .  ..   .   .  ..   .   .   .   .                      ",
"                             ...... .   .  .. . .     .    .........     . ..   .       .   .       .   .  .                           ",
"                                    .   .       .    .     .........     ......  ...  .....  ...  .....  ...  .....                    ",
"                                    .  . .. .   .   .      .........     .  .                                                          ",
"                                    .   .  ..   .   .      .........     .   .                                                         ",
"                                    .   .       .  .      ..........     .   ..                                                        ",
"                                  .....  ...  ......      .......... .   .   . .                                                       ",
"                                                  ..     . .........  .  .   . .                                                       ",
"                                                  ..     . .........  .  .  .   .                                                      ",
"                                                 .  .   .  .........   . .  .    .                                                     ",
"                                                 .  .   .  .........    ..  .    .                                                     ",
"                                                .   .  .   .........    ..  .     .                                                    ",
"                                               .    .  .   .........     .. .      . .                                                 ",
"                                               .     ..    .........      ..       . .                                                 ",
"                                              .      ..    .........      ..        ..                                                 ",
"                                              .      .     .........      ..         .                                                 ",
"                                             .       .     .........      ...        ..                                                ",
"                                             .      ..     .........      .  .       ..                                                ",
"                                            .       . .    .........      .  .       . .                                               ",
"                                           .       .  .    .........      .   .      .  .                                              ",
"                                           .       .  .    .........      .    .     .  .                                              ",
"                                          ..      .   .    .........      .    .     .   .                                             ",
"                                          ..      .    .   .........     ..     .   ..    .                                            ",
"                                         . .     .     .   .........     ..      .  ..    .                                            ",
"                                         . .     .     .   .........     ..      .  ..     .                                           ",
"                                        .  ..   .      .   .........     ..       .. .      .                                          ",
"                                       .   ..   .       . ..........     ..        . .      .                                          ",
"                                       .   . . .        . ..........    . .        . .       .                                         ",
"                                      .    . . .        .. .........    . .       . ..        .                                        ",
"                                      .    .  .         .. .........    . .       .  .         .                                       ",
"                                     .     .  .         .. .........    . .       .  ..        .                                       ",
"                                     .     . . .        .. .........   .  .      .   ..         .                                      ",
"                                    .      . . .        .. ..........  .  .      .   . .         .                                     ",
"                                   .       ..   .      . . ..........  .  .     .    .  .        . .                                   ",
"                                   .       ..   .      . . ......... . .  .     .    .  .         .                                    ",
"                                  .        .     .    .   ..........  ..  .     .    .   .      . ..                                   ",
"                                  .        .     .    .   ..........  ..   .   .     .    .     .. .                                   ",
"                                ..        ..      .   .   ..........  . .  .   .     .    .     .   .                                  ",
"                                 .        ..      .  .    ..........  . .  .   .     .     .   ..    .                                 ",
"                                . .      . .       . .    ..........  .  . .  .      .      .  ..     .                                ",
"                                .  .     . .       ..      .........  .   ..  .      .      . .  .    .                                ",
"                               .    .   .  .        .      ......... .     .  .      .       .   .     .                               ",
"                              .      .  .  .       ..      ......... .     ...       .      . .  .      .                              ",
"                              .       ..   .       . .     ......... .     ...       .      . .  .      .                              ",
"                             .         .   .      .  .     ......... .     . .       .     .   . .       .                             ",
"                             .        . .  .      .   .    ......... .     .. .       .   .     ..        .                            ",
"                            .         .  ...      .   .    ..........      ..  .      .  .       .        .                            ",
"                            .        .     .     .     .   ..........      ..   .     .  .       .         .                           ",
"                           ..        .     ..    .      .  ..........      .    .     . .        ..         .                          ",
"                          . ...     .       ..  .       .  ..........      .     .    ..         . .        .                          ",
"                          . .  ..   .       . . .        . .........       .      .   ..          ..         .                         ",
"                         .  .    . .        .  .         . .........      ..       .  .           . .         .                        ",
"                         .  .     ..        .  ..         ..........      ..       . ..           .  .         .                       ",
"                        .   .     . ..      . .  .        ..........      ..        . .           .  .     ..  .                       ",
"                        .   .     .   .     . .   .        .........     . .        ...           .   .  ..     .                      ",
"                       .    .    .     ..   . .    .       .........     . .       .  .           .    ..        .                     ",
"                      .     .    .       .. ..      .      .........     . .      .   ..          .  ...         .                     ",
"                      .     .   .          ...       .     .........    .  .     .    ..          ...   .         .                    ",
"                     . ..   .   .           ..        .   ..........    .  .     .    . .       ...      .         .                   ",
"                     .   .. .  .            . ..       .  ..........   .   .    .     .  .    ..  .      .         .                   ",
"                    .      ... .           ..   .       .. .........   .    .  .      .   . ..     .      .         ..                 ",
"                    .       . ..           ..    ..      . .........   .    .  .      .   ..       .       .    .... .                 ",
"                   .        . . ...       . .      ..   . ..........  .     . .       .... .       .        ....      .                ",
"                  .         ..     ..     . .        .  .  ............     ..       ..     .      .     ....         .                ",
"                  .         ..       ...  . .         ..   .........  .     .      .. .      .     . ....    .         .               ",
"                 .          .           ..  .         . .. ......... . ..   .    ..   .       .   ...         .         .              ",
"                 .          .            ....         .   .......... .   .... ...     .       .... .          .         .              ",
"                .          ..           .   ...      .     ......... .    ....        .    ... .   .           .         .             ",
"                .          ..           .   .  ..    .     ..........    .....        .....     .  .            .         .            ",
"               .          . .          .    .    ....      ..........   ..  . .    ....          . .            .         .            ",
".......................................................................................................................................",
".......................................................................................................................................",
".......................................................................................................................................",
".......................................................................................................................................",
".......................................................................................................................................",
".......................................................................................................................................",
".......................................................................................................................................",
".......................................................................................................................................",
"          ...........              .                       .........                                                   ..........      ",
"          ...........              .                       .........                                                   ..........      ",
"          ...........                                      .........                                                   ..........      ",
"          ...........                                      .........                                                   ..........      ",
"          ...........                                      .........                                                   ..........      ",
"          ...........                                      .........                                                   ..........      ",
"          ...........     ........      ..........   .......................      ..........       .....               ..........      ",
"          ...........     ..........     .........   .........................     .........     .........             ..........      ",
"          ...........    ...     ...        ..            ............      ...       ..         ..     ..             ..........      ",
"          ...........     ..      ...       ..            ............       ..       ..        ...      ..            ..........      ",
"          ...........     ..      ..        ...           ............       ..       ..        ..                     ..........      ",
"          ...........     ..      ..        ..            ............       ..       ..       ...                     ..........      ",
"          ...........     ..     ...        ..            ............      ...        .       ..                      ..........      ",
"          ...........     ........          ..            ....................        ..       ...   ......            ..........      ",
"          ...........     .........         ...           ..................          ...       ..   ......            ..........      ",
"          ...........     ..      ...       ..            ............   ...          ..       ..        ..            ..........      ",
"          ...........     ..       ..       ..            ............    ..          ...       ..       ..            ..........      ",
"          ...........     ..       ...      ..            ............     ..         ..       ...       ..            ..........      ",
"          ...........     ..       ...      ..            ............     ..         ..        ...      ..            ..........      ",
"          ...........     ..      ...       ..            ............      ..        ..         ...    ...            ..........      ",
"          ...........     ..........     .........        ............      ...    .........      ........             ..........      ",
"          ...........     .........     ..........        .............      ..   ..........       ......              ..........      ",
"          ...........                                      .........                                                   ..........      ",
"          ...........                                      .........                                                   ..........      ",
"          ...........                                      .........                                                   ..........      ",
"          ...........                                      .........                                                   ..........      ",
"          ...........                                      .........                                                   ..........      ",
"          ...........                                      .........                                                   ..........      ",
"          ...........                                      .........                                                   ..........      "
};
