/* XPM */
static char *Bitrig_4bpp[] = {
/* columns rows colors chars-per-pixel */
"170 90 32 1 ",
"  c #117744",
". c #227744",
"X c #227755",
"o c #228855",
"O c #338855",
"+ c #338866",
"@ c #448866",
"# c #449966",
"$ c #449977",
"% c #559977",
"& c #66AA88",
"* c #77AA88",
"= c #77AA99",
"- c #77BB99",
"; c #88BB99",
": c #88BBAA",
"> c #99BBAA",
", c #99CCAA",
"< c #99CCBB",
"1 c #AACCBB",
"2 c #BBCCBB",
"3 c #BBCCCC",
"4 c #BBDDCC",
"5 c #CCDDCC",
"6 c #CCDDDD",
"7 c #CCEEDD",
"8 c #DDEEDD",
"9 c #DDEEEE",
"0 c #EEEEEE",
"q c #EEFFEE",
"w c #EEFFFF",
"e c gray100",
/* pixels */
"                                                                                                                                                                          ",
"                                                                                                                                                                          ",
"                                                                                                                                                                          ",
"                                                                                                                                                                          ",
"                                                                                                                                                                          ",
"                                                                                                                                                                          ",
"                                                                                                                                                                          ",
"                                                                                                                                                                          ",
"                                                                                                                                                                          ",
"                                                                                                                                                                          ",
"                                                                                                                                                                          ",
"                                                                                                                                                                          ",
"                                                                                                                                                                          ",
"                                                                                                                                                                          ",
"                                                                                                                                                                          ",
"                              XXXXX                                                                                                                                       ",
"                           o6eeeeee0%                                                                                                                                     ",
"                           :eeeeeeee0                                                                                                                                     ",
"                           4eeeeeeeeeo                                                                                                                                    ",
"                           8ee9::4eee#                                                                                                                                    ",
"                           eee1  %eee&                                                                                                                                    ",
"                          oeee;  Oeee-                                                                                                                                    ",
"                          #eee&   eee,                                                                                                                                    ",
"                          &eee$   0ee3                                                                                                                                    ",
"                          ;eeeO   6ee6                                                                                                                                    ",
"                          <eee    1ee0                                                                                                                                    ",
"                          4ee9    >eee.                                                                                                                                   ",
"                          8ee5    =eee+                                                                                                                                   ",
"                          wee1    %eee%                                                                                                                                   ",
"                         Xeee:    @eee*                                                                                                                                   ",
"                         +eee844445eee:                                                                                                                                   ",
"                         %eeeeeeeeeeee1                                         ===&                                 +===+                                                ",
"                         *eeeeeeeeeeee5                                        oeee5                                 =eee*                                                ",
"                         :eeeeeq999wee9               o---------*&#            oeee5                                 =eee*                                                ",
"                         1eeeee0O  <eee               #eeeeeeeeeeeee4&         oeee5                                 =eee*                                                ",
"                         5eeeeee6  ;eeeo              #eeeeeeeeeeeeeee6O        ;;;&       %%%@                      @;;;@                                                ",
"                         9ee69eee, &eee#              #eee8<<<<<140eeee9o                 oeee4                                                                           ",
"                         eee<+weee&$eee&              #eee1        %0eee1                 oeee4                                                                           ",
"                        oeee; &eeee%eee;              #eee1         +weeeo                oeee4                                                                           ",
"                        #eee&  1eee9eee,              #eee1          ,eee&                oeee4                                                                           ",
"                        &eee%   6eeeeee4              #eee1          &eee-      oooX   .OO#eee6OOOo    XOOO   o&-*    ooo           o&==%.   XOO.                         ",
"                        -eeeO   o0eeeee8              #eee1          &eee:     oeee5   -eeeeeeeeee5    ;eee  ;eee0   =eee*        +4eeeeee<  3ee;                         ",
"                        ,eee     %eeeeeq              #eee1          ;eee&     oeee5   -eeeeeeeeee5    ;eeeO1eeee5   =eee*       %eeeeeeeee8o8ee;                         ",
"                        4eee----*&6eeeeeX             #eee1          8eewX     oeee5   &445eee0444>    ;eee1eeeee1   =eee*      +weeee6149ee6eee;                         ",
"                        6eeeeeeeeeeeeeee@             #eee1         1eee=      oeee5      oeee4        ;eeeee1%@#O   =eee*      6eee8#    &qeeee;                         ",
"                        0eeeeeeeeeeeeeee&             #eee4&&&&&&&>0eee=       oeee5      oeee4        ;eeee&        =eee*     %eee0o      @weee;                         ",
"                        eeeeeeeeeeeeeeee=             #eeeeeeeeeeeeee4@        oeee5      oeee4        ;eee,         =eee*     3eee=        ;eee;                         ",
"                       +eee:OOOO@%0eeeee:             #eeeeeeeeeeeeeee2+       oeee5      oeee4        ;eee&         =eee*     eeew         &eee;                         ",
"                       %eee%    X7eeeeee1             #eee9111111149eeee&      oeee5      oeee4        ;eee&         =eee*    @eee4         &eee;                         ",
"                       &eee#    5eee00ee6             #eee1         %0eee#     oeee5      oeee4        ;eee&         =eee*    &eee:         &eee;                         ",
"                       :eeeo   4eee0+4ee0             #eee1          +eee8     oeee5      oeee4        ;eee&         =eee*    =eee&         &eee;                         ",
"                       1eee   3eeeq# ,eee             #eee1           1eee$    oeee5      oeee4        ;eee&         =eee*    ;eee&         &eee;                         ",
"                       4ee8  1eeee%  -eeeO            #eee1           &eee:    oeee5      oeee4        ;eee&         =eee*    ;eee&         &eee;                         ",
"                       9ee4 ,eeee%   &eee$            #eee1           @eee1    oeee5      oeee4        ;eee&         =eee*    =eee*         &eee;                         ",
"                       eee1:eeee&    #eee&            #eee1           #eee1    oeee5      oeee4        ;eee&         =eee*    &eee>         &eee;                         ",
"                      oeee9eeee;     oeee;            #eee1           &eee:    oeee5      oeee4        ;eee&         =eee*    Oeee6         &eee;                         ",
"                      #eeeeeee;       eee<            #eee1           4eee%    oeee5      oeee5        ;eee&         =eee*     9eee#        :eee;                         ",
"                      &eeeeee>        9ee4            #eee1          -eee0     oeee5       eee9        ;eee&         =eee*     ;eee6       $eeee;                         ",
"                      =eeeeeq:::::::::0ee8            #eee1        %4eeee=     oeee5       0eee%       ;eee&         =eee*     X0eee4+    =eeeee;                         ",
"                      >eeeeeeeeeeeeeeeeeew            #eeeeeeeeeeeeeeeee,      oeee5       1eeee66;    ;eee&         =eee*      &eeeee846qeeeeee;                         ",
"                      1eeeeeeeeeeeeeeeeeeeX           #eeeeeeeeeeeeeeeq&       oeee5       Oqeeeee4    ;eee&         =eee*       *eeeeeeeee6=eee;                         ",
"                      6eeeeeeeeeeeeeeeeeee@           #eeeeeeeeeeeq81&         oeee5        #8eeee5    ;eee&         =eee*        #6eeeeeq: &eee;                         ",
"                      0ee4XXXXXXXXXXXX%eee%                                                   $&&#                                  o%&&#   &eee=                         ",
"                      eee,            +eee=                                                                                                 ;eee&                         ",
"                     Oeee-             eee>                                                                                                 4eee@                         ",
"                     %eee&             0ee1                                                                                                %eee0                          ",
"                     &eee#             6ee8&&&&&&&&&&&&&&&&&&&&&&&&&&&&&&&&&&&&&&&&&&&&&&&&&&&&&&&&&&&&&&&&&&&&&&&&&&&&&X        %1%      *qeee;                          ",
"                     ;eeeo             2eeeeeeeeeeeeeeeeeeeeeeeeeeeeeeeeeeeeeeeeeeeeeeeeeeeeeeeeeeeeeeeeeeeeeeeeeeeeeeeew&       <eee8445weeee6                           ",
"                     >eee              >eeeeeeeeeeeeeeeeeeeeeeeeeeeeeeeeeeeeeeeeeeeeeeeeeeeeeeeeeeeeeeeeeeeeeeeeeeeeeeeee4       0eeeeeeeeeee6o                           ",
"                     %ee1              +8eeeeeeeeeeeeeeeeeeeeeeeeeeeeeeeeeeeeeeeeeeeeeeeeeeeeeeeeeeeeeeeeeeeeeeeeeeeeeeee&       %1qeeeeeee9=                             ",
"                      +$                 $%%%%%%%%%%%%%%%%%%%%%%%%%%%%%%%%%%%%%%%%%%%%%%%%%%%%%%%%%%%%%%%%%%%%%%%%%%%%%%+           @&;:;*+                               ",
"                                                                                                                                                                          ",
"                                                                                                                                                                          ",
"                                                                                                                                                                          ",
"                                                                                                                                                                          ",
"                                                                                                                                                                          ",
"                                                                                                                                                                          ",
"                                                                                                                                                                          ",
"                                                                                                                                                                          ",
"                                                                                                                                                                          ",
"                                                                                                                                                                          ",
"                                                                                                                                                                          ",
"                                                                                                                                                                          ",
"                                                                                                                                                                          ",
"                                                                                                                                                                          ",
"                                                                                                                                                                          ",
"                                                                                                                                                                          ",
"                                                                                                                                                                          ",
"                                                                                                                                                                          ",
"                                                                                                                                                                          "
};
