/* XPM */
static char *Bitrig_1bpp[] = {
/* columns rows colors chars-per-pixel */
"170 90 4 1 ",
"  c #0d7340",
". c #449966",
"X c #227755",
"o c gray100",
/* pixels */
"                                                                                                                                                                          ",
"                                                                                                                                                                          ",
"                                                                                                                                                                          ",
"                                                                                                                                                                          ",
"                                                                                                                                                                          ",
"                                                                                                                                                                          ",
"                                                                                                                                                                          ",
"                                                                                                                                                                          ",
"                                                                                                                                                                          ",
"                                                                                                                                                                          ",
"                                                                                                                                                                          ",
"                                                                                                                                                                          ",
"                                                                                                                                                                          ",
"                                                                                                                                                                          ",
"                                                                                                                                                                          ",
"                                                                                                                                                                          ",
"                           .oooooooo.                                                                                                                                     ",
"                           oooooooooo                                                                                                                                     ",
"                           oooooooooo.                                                                                                                                    ",
"                           oooooooooo.                                                                                                                                    ",
"                           oooo  .oooX                                                                                                                                    ",
"                          .oooo  .oooX                                                                                                                                    ",
"                          .oooX   oooo                                                                                                                                    ",
"                          Xooo.   oooo                                                                                                                                    ",
"                          oooo.   oooo                                                                                                                                    ",
"                          oooo    oooo                                                                                                                                    ",
"                          oooo    oooo                                                                                                                                    ",
"                          oooo    Xooo.                                                                                                                                   ",
"                          oooo    .ooo.                                                                                                                                   ",
"                          oooo    .oooX                                                                                                                                   ",
"                         .ooooooooooooo                                                                                                                                   ",
"                         .ooooooooooooo                                         XXXX                                 .XXX.                                                ",
"                         Xooooooooooooo                                        .oooo                                 XoooX                                                ",
"                         oooooooooooooo               .XXXXXXXXXXX.            .oooo                                 XoooX                                                ",
"                         ooooooo.  oooo               .ooooooooooooooX         .oooo                                 XoooX                                                ",
"                         oooooooo  oooo.              .oooooooooooooooo.        oooX       ....                      .ooo.                                                ",
"                         ooooooooo Xooo.              .ooooooooooooooooo.                 .oooo                                                                           ",
"                         oooo.ooooX.oooX              .oooo        .ooooo                 .oooo                                                                           ",
"                        .oooo Xoooo.oooo              .oooo         .oooo.                .oooo                                                                           ",
"                        .oooX  ooooooooo              .oooo          ooooX                .oooo                                                                           ",
"                        Xooo.   oooooooo              .oooo          XoooX      ...     ...oooo....     ...   .XXX    ...           .XXX.     ..                          ",
"                        Xooo.   .ooooooo              .oooo          Xoooo     .oooo   Xooooooooooo    oooo  ooooo   XoooX        .oooooooo  oooo                         ",
"                        oooo     .oooooo              .oooo          ooooX     .oooo   Xooooooooooo    oooo.oooooo   XoooX       .oooooooooo.oooo                         ",
"                        ooooXXXXXXoooooo              .oooo          oooo      .oooo   Xooooooooooo    ooooooooooo   XoooX      .oooooooooooooooo                         ",
"                        oooooooooooooooo.             .oooo         ooooX      .oooo      .oooo        ooooooo....   XoooX      ooooo.    Xoooooo                         ",
"                        ooooooooooooooooX             .ooooXXXXXXXoooooX       .oooo      .oooo        oooooX        XoooX     .oooo.      .ooooo                         ",
"                        ooooooooooooooooX             .ooooooooooooooo.        .oooo      .oooo        ooooo         XoooX     ooooX        ooooo                         ",
"                       .oooo......ooooooo             .oooooooooooooooo.       .oooo      .oooo        ooooX         XoooX     oooo         Xoooo                         ",
"                       .ooo.     oooooooo             .oooooooooooooooooX      .oooo      .oooo        ooooX         XoooX    .oooo         Xoooo                         ",
"                       Xooo.    ooooooooo             .oooo         .oooo.     .oooo      .oooo        ooooX         XoooX    Xoooo         Xoooo                         ",
"                       oooo.   ooooo.oooo             .oooo          .oooo     .oooo      .oooo        ooooX         XoooX    XoooX         Xoooo                         ",
"                       oooo   ooooo. oooo             .oooo           oooo.    .oooo      .oooo        ooooX         XoooX    ooooX         Xoooo                         ",
"                       oooo  ooooo.  Xooo.            .oooo           Xoooo    .oooo      .oooo        ooooX         XoooX    ooooX         Xoooo                         ",
"                       oooo ooooo.   Xooo.            .oooo           .oooo    .oooo      .oooo        ooooX         XoooX    XoooX         Xoooo                         ",
"                       oooooooooX    .oooX            .oooo           .oooo    .oooo      .oooo        ooooX         XoooX    Xoooo         Xoooo                         ",
"                      .ooooooooo     .oooo            .oooo           Xoooo    .oooo      .oooo        ooooX         XoooX    .oooo         Xoooo                         ",
"                      .oooooooo       oooo            .oooo           oooo.    .oooo      .oooo        ooooX         XoooX     oooo.        ooooo                         ",
"                      Xooooooo        oooo            .oooo          Xoooo     .oooo       oooo        ooooX         XoooX     ooooo       .ooooo                         ",
"                      Xooooooooooooooooooo            .oooo        .oooooX     .oooo       oooo.       ooooX         XoooX      ooooo.    Xoooooo                         ",
"                      oooooooooooooooooooo            .oooooooooooooooooo      .oooo       oooooooo    ooooX         XoooX      Xoooooooooooooooo                         ",
"                      oooooooooooooooooooo            .ooooooooooooooooX       .oooo       .ooooooo    ooooX         XoooX       XooooooooooXoooo                         ",
"                      oooooooooooooooooooo.           .ooooooooooooooX         .oooo        .oooooo    ooooX         XoooX        .oooooooo Xoooo                         ",
"                      oooo            .ooo.                                                   .XX.                                  ..XX.   XoooX                         ",
"                      oooo            .oooX                                                                                                 ooooX                         ",
"                     .oooX             oooo                                                                                                 oooo.                         ",
"                     .oooX             oooo                                                                                                .oooo                          ",
"                     Xooo.             ooooXXXXXXXXXXXXXXXXXXXXXXXXXXXXXXXXXXXXXXXXXXXXXXXXXXXXXXXXXXXXXXXXXXXXXXXXXXXXX         .o.      Xooooo                          ",
"                     oooo.             ooooooooooooooooooooooooooooooooooooooooooooooooooooooooooooooooooooooooooooooooooX       oooooooooooooo                           ",
"                     oooo              ooooooooooooooooooooooooooooooooooooooooooooooooooooooooooooooooooooooooooooooooooo       ooooooooooooo.                           ",
"                     .ooo              .oooooooooooooooooooooooooooooooooooooooooooooooooooooooooooooooooooooooooooooooooX       .ooooooooooX                             ",
"                      ..                 ................................................................................           .XoooX.                               ",
"                                                                                                                                                                          ",
"                                                                                                                                                                          ",
"                                                                                                                                                                          ",
"                                                                                                                                                                          ",
"                                                                                                                                                                          ",
"                                                                                                                                                                          ",
"                                                                                                                                                                          ",
"                                                                                                                                                                          ",
"                                                                                                                                                                          ",
"                                                                                                                                                                          ",
"                                                                                                                                                                          ",
"                                                                                                                                                                          ",
"                                                                                                                                                                          ",
"                                                                                                                                                                          ",
"                                                                                                                                                                          ",
"                                                                                                                                                                          ",
"                                                                                                                                                                          ",
"                                                                                                                                                                          ",
"                                                                                                                                                                          "
};
