/* XPM */
static char *Bitrig_4bpp[] = {
/* columns rows colors chars-per-pixel */
"169 65 15 1 ",
"  c #117744",
". c #22774D",
"X c #2F8855",
"o c #338866",
"O c #4C986F",
"+ c #6EAC8C",
"@ c #88BB99",
"# c #91BBAA",
"$ c #99CCAD",
"% c #AACCBB",
"& c #BBD6CC",
"* c #CCDDD7",
"= c #DCEEDD",
"- c #DDEEEE",
"; c #FEFFFE",
/* pixels */
"                                                                                                                                                                         ",
"                                                                                                                                                                         ",
"                                                                                                                                                                         ",
"                                                                                                                                                                         ",
"                                                                                                                                                                         ",
"                                                                                                                                                                         ",
"                                                                                                                                                                         ",
"                                                                                                                                                                         ",
"                                                                                                                                                                         ",
"                                                                                                                                                                         ",
"                                                                                                                                                                         ",
"                                                                                                                                                                         ",
"                                                                                                                                                                         ",
"                                                                                                                                                                         ",
"                                                                                                                                                                         ",
"       +@@@@@O                                                                                                                                                           ",
"      *;;;;;;;o                                                                                                                                                          ",
"      ;;;;;;;;+                                                                                                                                                          ",
"     o;;;%%=;;#.                                                                                                                                                         ",
"     O;;=  +;;%                                                                                                                                                          ",
"     +;;&  +;;*                                                                                                                                                          ",
"     @;;%  O;;-.                                                                                                                                                         ",
"     %;;+  X;;;                                                                                                                                                          ",
"     *;;+   ;;;o                                                                                                                                                         ",
"     -;;O   =;;O                                                                                                                                                         ",
"     ;;;X   &;;+                                                                                                                                                         ",
"    X;;;    %;;#                                                                                                                                                         ",
"    O;;-.   #;;%                                                                                                                                                         ",
"    +;;;;;;;;;;*                                                                                                                                                         ",
"    +;;;;;;;;;;-                                   o-;-X                            +;;=                                                                                 ",
"    $;;;;;;;;;;;              ooooooXXX            O;;;X                            +;;;                                                                                 ",
"    &;;;;-X.X;;;X            X;;;;;;;;;;=%O        O;;;X                            +;;=                                                                                 ",
"    =;;;;;&  -;;o            X;;;;;;;;;;;;;&X      X+@+.     oOOo                   o@++                                                                                 ",
"    -;;%;;;@ *;;+           .X;;;$@++@#%-;;;*                %;;&                     .                                                                                  ",
"   .;;;.%;;;O&;;@            X;;;O       @;;;#               %;;&                                                                                                        ",
"   o;;;  =;;-&;;$            X;;;O        %;;=               %;;&                                                                                                        ",
"   O;;=  o-;;;;;&            X;;;o        O;;;               %;;&              .X   .              X       .                                                             ",
"   +;;&  .O;;;;;=            X;;;O        o;;;o    X***X  +**-;;;***X   #**O o%-;+  O***        O%-;=&@  #**                                                             ",
"   @;;%    #;;;;;            X;;;o        O;;;.    O;;;X  $;;;;;;;;;o   %;;@O;;;;O  +;;-       +;;;;;;;& =;;                                                             ",
"   %;;*#@@@@;;;;;.           X;;;O        &;;&     O;;;X  +&&-;;-&&&X   %;;&-;;;;X  +;;;      #;;;;=%-;;*;;;                                                             ",
"   *;;;;;;;;;;;;;O           X;;;O      .$;;-o     O;;;X     %;;&       %;;;;#O.X   +;;;     X;;;-X.  X*;;;;                                                             ",
"   -;;;;;;;;;;;;;O           X;;;&%%%%%&-;;%.      O;;;X     %;;&       %;;;+       +;;-     $;;-X     .*;;;                                                             ",
"   ;;;%$%%%%;;;;;+           X;;;;;;;;;;;;*X       X;;;X     %;;&       %;;*.       +;;-    .;;;#       O;;;                                                             ",
"  X;;;     %;;;;;#           X;;;;;;;;;;;;;;%      O;;;X     %;;&       %;;&        +;;;    O;;;X       O;;;                                                             ",
"  O;;-.   %;;;-;;%           X;;;O      X+-;;&     O;;;X     %;;&       %;;%        +;;=    +;;;.       O;;;                                                             ",
"  +;;*   #;;;&+;;*           X;;;O        X;;;+    o;;;X     %;;&       %;;&        +;;;    @;;=        O;;;                                                             ",
"  @;;%  @;;;& O;;-           X;;;O         #;;=    O;;;X     %;;&       %;;%        +;;=    $;;&        O;;;                                                             ",
"  $;;# +;;;*  X;;;           X;;;o         O;;;    O;;;X     %;;&       %;;&        +;;;    @;;*        +;;;                                                             ",
"  &;;++;;;*.   ;;;.          X;;;O         o;;;o   O;;;X     %;;*       %;;&        +;;=    +;;-        O;;;                                                             ",
"  =;;$;;;-..   -;;O          X;;;X         O;;;.   X;;;X     %;;&       %;;&        +;;;    O;;;        O;;;                                                             ",
"  ;;;;;;-.     *;;+          X;;;O         @;;-    O;;;X     %;;&       %;;&        +;;=    o;;;+.      +;;;                                                             ",
" .;;;;;-o  .   %;;@          X;;;O        o;;;%    O;;;X     #;;-       %;;&        +;;=     &;;-.     o-;;;                                                             ",
".o;;;;;%++++@++*;;%          X;;;O      o#;;;=X    O;;;X     +;;;O.     %;;%        +;;;     O;;;=o.  O-;;;;                                                             ",
" O;;;;;;;;;;;;;;;;&          X;;;;;;;;;;;;;;;O     O;;;X     o;;;;--    %;;&        +;;-      $;;;;-*;;;-;;;                                                             ",
" +;;;;;;;;;;;;;;;;=          X;;;;;;;;;;;;;$X      O;;;X      #;;;;;O   %;;&        +;;;       @;;;;;;;$+;;;                                                             ",
".#;;=&&&&&%&&&&&;;;          .$$$$$$$$$@+O.        X$$$.       +&--%X   +##+        O$$#        O#&-*$O O;;;                                                             ",
" %;;+          .;;;X                                                                                    +;;-                                                             ",
" *;;+           ;;;O                                                                                    $;;&                                                             ",
" -;;O           =;;+                                                  .  . ...       . .               X;;;$                                                             ",
" ;;;X           &;;$O+++++++++O++O++++O++O+++++O++O++++++++OO+++++O+OOOOOOOOOOOOO+OOOOO.       %+X    O=;;-X                                                             ",
".;;;            $;;;;;;;;;;;;;;;;;;;;;;;;;;;;;;;;;;;;;;;;;;;;;;;;;;;;;;;;;;;;;;;;;;;;;;=.     X;;;;==;;;;;+                                                              ",
"X;;-            +;;;;;;;;;;;;;;;;;;;;;;;;;;;;;;;;;;;;;;;;;;;;;;;;;;;;;;;;;;;;;;;;;;;;;;;X     +;;;;;;;;;-+                                                               ",
" @*O             #&&&&**&&**&**&**&*&**&&***&*&****************************************+       .+&=-;=&@.                                                                ",
"                                                                                                                                                                         ",
"                                                                                                                                                                         "
};
