/* XPM */
static char *Bitrig_4bpp[] = {
/* columns rows colors chars-per-pixel */
"135 135 16 1 ",
"  c #000000",
". c #002300",
"X c #005000",
"o c #05FF05",
"O c #1FFE20",
"+ c #5AFF2B",
"@ c #34F952",
"# c #E5FF55",
"$ c #B7FF2C",
"% c #20FFA0",
"& c #4FFFCF",
"* c #F9FF9F",
"= c #A1FFF9",
"- c #FFFFFF",
"; c #ECFFD8",
": c #A6FF9D",
/* pixels */
"--------------------------------------------------------------------------*+=-#@+&+%-*@+=$O@@=#o&*@:+=-------;:O=--#+O%=-#OO%;-;$@=----",
"--------------------------------------------------------------------------;+=-*@=;+%-#%+=#%O%;$O%--;+=------*+:+=-*@=;$&*@=-$&*@:+=----",
"-----------------------------------------------------------------;;$O=--$OooO%;$oOO=$ooooO%$oo@$%--*+=--------*+=-#%;;#%#%-;#%--;+=----",
"---------------------------------;$@=--#O+%=-;$@=--#O+%=-;$O=----*@&+=-*@=;$&#+&@:@:@$%$%#%#%;=#%=-;+=--------;+=-#%$%:%#%$%#%--;+=----",
"--------------------------------*@:@=-*@=-$&*@:@=-*@=-$&*@:+=------*+=-#%;;#%--;+:+$%:@$%$&*@=-$&--*+=--------;+=-#%;=#%#%;;#%=-*+=----",
"----------------------------------*+=-#%-;#%--;+=-#%-;#%--;+=------;+=-#%$%#%--#OOOo%$OOo%=-#OO%=*+OOO%=------;+=-*@=;$&*@=-$&--;+=----",
"----------------------------------;+=-#%$%$%--;+=-#%$%#%--;+=------*+=-#%;=#%--;+=-#%;;#%-------------------*+OoO%;#+O%--#OO%;*+Ooo%---",
"----------------------------;$O=--;+=-#%;;#%=-*+=-#%;=#%--;+=------;+=-*@=-$&--*+=-*@=;$&----------------------------------------------",
"---------------------------*@:@=--*+=-*@=-$&--;+=-*@=-$&--;+=----*+OoO%=#OO%-*OOoO%;#OO%-----------------------------------------------",
"-----------------------------*+=*+OoO%;#OO%;*+OoO%;#OO%;*+OoO%;------------------------------------------------------------------------",
"-----------------------------;+=-------------------------------------------------------------------------------------------------------",
"-----------------------------;+=-------------;$O=--#+O%=-;$O=--#OO%;-;$O=--#OO%;-#OO%;-;$O=--------------------------------------------",
"-----------------------------*+=------------*@:@=-*@=-$&*@:+=-*@=-$&*@:+=-*@=;$&*@=;$&*@&+=--------------------------------------------",
"---------------------------*+OoO%;-;$O=--#OO%-*+=-#%;-#%--;+=-#%;-#%--;+=-#%--#%#%--#%--;+=--------------------------------------------",
"----------------------------------*@:@=-*@=-$&;+=-#%$%$%--;o  XXXoXo--;+=-#%$%#%$%$%#%--;+=--------------------------------------------",
"------------------------------------;+=-#%;-#%;+=-#%;;#%--*o  Xo.XXX--;+=-#%;=#%#%;=#%--;+=---#+O%;-;$O=--#OO%;-;$O=-------------------",
"------------------------------------*+=-#%#%#%;+=-*@=;$&--;o   o  oX--*+=-*@=-$&*@=-$&--*+=--*@=-$%*@:+=-*@=;$&*@:+=-------------------",
"------------------------------------;@=-#%;:#oooO%-#OO%-*+Oooo XooX *+OoO%;#OO%--#OO%;*OOoO%-#%;-#%--;+=-#%--#%--;+=-------------------",
"------------------------------------*+=-*@=-$&----------;--         -------------------------#%$%$%--;@=-#%$%$%=-;+=-------------------",
"---------------;$O=--;$@=--#O+%=--*+OoO%;#OoO%=-;$O=-------          ------------------------#%;=#%--*+=-#%;=#%--;+=-------------------",
"--------------*@:@=-*@:@=-*@=-$&---------*@=-$&*@:+=-------         - -----------------------*+=-$&--*+=-*@=-$&--*+=-------------------",
"--------------;-;+=---;+=-#%-;#%---------#%--#%=-;+=------          - ------------------------#OO%;*+OoO%;#+O%;*+OoO%------------------",
"----------------;+=---*+=-#%$%#%=--------#%$%#%--;@=------          -- ----------------------------------------------------------------",
"----------------*+=---;+=-#%;:+O=--------#%;:#%--;+=----- -         --- ---------------------------------------------------------------",
"----------------;+=---;+=-*@:@+O=--------*@=;$&--*+=---- --         ---- -;$@=--#OO%=-;$@=--#OO%=-;$@=--#OO%;-;$O=---------------------",
"--------------*+OoO@:+OoO%;#OO%+=---------#OO%=*+OoO%;-- --         ---- *@:+=-*@=-$&*@:@=-*@=-$&*+&@=-*@=-$&*@:@=---------------------",
"------------------------------*+=---------------------- ---         ----- -;+=-#%;-#%--;+=-#%--#%--*+=-#%-;#%--*+=---------------------",
"------------------------------;+=---------------------- ---         ------ *+=-#%$%#%--*+=;#%$%#%--;+=-#%$%#%=-;+=---------------------",
"------------------------------*+=-;$O=--#OO%=-;$O=---- ----         -----  ;+=-#%;;#%--;+=-#%;;#%--*+=-#%;;#%--*+=---------------------",
"----------------------------*+OoO@@:+=-*@=-$&*@:@=---- ----         ----- - +=-*@=;$&--*+=-*@=;$&--;+=-*@=-$&--;+=---------------------",
"-----------------------------------;+=-#%;-#%--;+=--- -----         -----.+OoO%;#OO%=*+OOO%;#OO%=*+OoO%;#OO%=*+OoO%;-------------------",
"-----------------------------------;+=-#%$%#%--;+=-- ------         ----- -- ----------------------------------------------------------",
"-----------------------------------;+=-#%;;#%--;+=-- ------         ----- --- ---------------------------------------------------------",
"-----------------------------------*+=-*@=;$&--*+=- ------          ----- ---  --------------------------------------------------------",
"---------------------------------*+OoO%;#OO%;*OOoO% ------          - --- --- - -------------------------------------------------------",
"--------------------------------------------------  ----- -         -- -- --- - -------------------------------------------------------",
"--------------------------------------------------  ----- -         -- -- -- --- ------------------------------------------------------",
"------------------------------------------------- -- --- --         --- - -- ---- -----------------------------------------------------",
"------------------------------------------------- -- --- --         ----  -- ---- -----------------------------------------------------",
"------------------------------------------------ --- -- ---         ----  -- ----- ----------------------------------------------------",
"----------------------------------------------- ---- -- ---         -----  - ------ - -------------------------------------------------",
"----------------------------------------------- -----  ----         ------  ------- - -------------------------------------------------",
"---------------------------------------------- ------  ----         ------  --------  -------------------------------------------------",
"---------------------------------------------- ------ -----         ------  --------- -------------------------------------------------",
"--------------------------------------------- ------- -----         ------   --------  ------------------------------------------------",
"--------------------------------------------- ------  -----         ------ -- -------  ------------------------------------------------",
"-------------------------------------------- ------- - ----         ------ -- ------- - -----------------------------------------------",
"------------------------------------------- ------- -- ----         ------ --- ------ -- ----------------------------------------------",
"------------------------------------------- ------- -- ----         ------ ---- ----- -- ----------------------------------------------",
"------------------------------------------  ------ --- ----         ------ ---- ----- --- ---------------------------------------------",
"------------------------------------------  ------ ---- ---         -----  ----- ---  ---- --------------------------------------------",
"----------------------------------------- - ----- ----- ---         -----  ------ --  ---- --------------------------------------------",
"----------------------------------------- - ----- ----- ---         -----  ------ --  ----- -------------------------------------------",
"---------------------------------------- --  --- ------ ---         -----  -------  - ------ ------------------------------------------",
"--------------------------------------- ---  --- ------- -          -----  -------- - ------ ------------------------------------------",
"--------------------------------------- --- - - -------- -          ---- - -------- - ------- -----------------------------------------",
"-------------------------------------- ---- - - --------  -         ---- - ------- -  -------- ----------------------------------------",
"-------------------------------------- ---- -- ---------  -         ---- - ------- -- --------- ---------------------------------------",
"------------------------------------- ----- -- ---------  -         ---- - ------- --  -------- ---------------------------------------",
"------------------------------------- ----- - - --------  -         --- -- ------ ---  --------- --------------------------------------",
"------------------------------------ ------ - - --------  -          -- -- ------ --- - --------- -------------------------------------",
"----------------------------------- -------  --- ------ - -          -- -- ----- ---- -- -------- - -----------------------------------",
"----------------------------------- -------  --- ------ - -         - - -- ----- ---- -- --------- ------------------------------------",
"---------------------------------- -------- ----- ---- ---          --  -- ----- ---- --- ------ -  -----------------------------------",
"---------------------------------- -------- ----- ---- ---          --  --- --- ----- ---- -----  - -----------------------------------",
"--------------------------------  --------  ------ --- ---          -- - -- --- ----- ---- ----- --- ----------------------------------",
"--------------------------------- --------  ------ -- ----          -- - -- --- ----- ----- ---  ---- ---------------------------------",
"-------------------------------- - ------ - ------- - ----          -- -- - -- ------ ------ --  ----- --------------------------------",
"-------------------------------- -- ----- - -------  ------         -- ---  -- ------ ------ - -- ---- --------------------------------",
"------------------------------- ---- --- -- -------- ------         - ----- -- ------ ------- --- ----- -------------------------------",
"------------------------------ ------ -- -- -------  ------         - -----   ------- ------ - -- ------ ------------------------------",
"------------------------------ -------  --- ------- - -----         - -----   ------- ------ - -- ------ ------------------------------",
"----------------------------- --------- --- ------ -- -----         - ----- - ------- ----- --- - ------- -----------------------------",
"----------------------------- -------- - -- ------ --- ----         - -----  - ------- --- -----  -------- ----------------------------",
"---------------------------- --------- --   ------ --- ----          ------  -- ------ -- ------- -------- ----------------------------",
"---------------------------- -------- ----- ----- ----- ---          ------  --- ----- -- ------- --------- ---------------------------",
"---------------------------  -------- -----  ---- ------ --          ------ ---- ----- - --------  --------- --------------------------",
"-------------------------- -   ----- -------  -- ------- --          ------ ----- ----  --------- - -------- --------------------------",
"-------------------------- - --  --- ------- - - -------- -         ------- ------ ---  ----------  --------- -------------------------",
"------------------------- -- ---- - -------- -- --------- -         ------  ------- -- ----------- - --------- ------------------------",
"------------------------- -- -----  -------- --  ---------          ------  ------- -  ----------- -- --------- -----------------------",
"------------------------ --- ----- -  ------ - -- --------          ------  -------- - ----------- -- -----  -- -----------------------",
"------------------------ --- ----- --- ----- - --- --------         ----- - --------   ----------- --- --  ----- ----------------------",
"----------------------- ---- ---- -----  --- - ---- -------         ----- - ------- -- ----------- ----  -------- ---------------------",
"---------------------- ----- ---- -------  -  ------ ------         ----- - ------ ---  ---------- --   --------- ---------------------",
"---------------------- ----- --- ----------   ------- -----         ---- -- ----- ----  ----------   --- --------- --------------------",
"--------------------- -  --- --- -----------  -------- ---          ---- -- ----- ---- - -------   ------ --------- -------------------",
"--------------------- ---  - -- ------------ -  ------- --          --- --- ---- ----- -- ----  -- ------ --------- -------------------",
"-------------------- ------   - -----------  --- -------  -         --- ---- -- ------ --- -  ----- ------ ---------  -----------------",
"-------------------- ------- -  -----------  ----  ------ -         --- ---- -- ------ ---  ------- ------- ----    - -----------------",
"------------------- -------- - -   ------- - ------  --- -          -- ----- - -------    - ------- --------    ------ ----------------",
"------------------ ---------  -----  ----- - -------- -- --            -----  -------  ----- ------ -----    --------- ----------------",
"------------------ ---------  -------   -- - ---------  ---         -- ----- ------  - ------ ----- -    ---- --------- ---------------",
"----------------- ---------- -----------  -- --------- -  -         - -  --- ----  --- ------- ---   --------- --------- --------------",
"----------------- ---------- ------------    --------- ---          - ---    -   ----- -------    - ---------- --------- --------------",
"---------------- ----------  ----------- ---   ------ -----         - ----    -------- ----   - --- ----------- --------- -------------",
"---------------- ----------  ----------- --- --  ---- -----          ----     --------     ----- -- ------------ --------- ------------",
"--------------- ---------- - ---------- ---- ----    ------          ---  -- - ----    ---------- - ------------ --------- ------------",
"                                                                                                                                       ",
"                                                                                                                                       ",
"                                                                                                                                       ",
"                                                                                                                                       ",
"                                                                                                                                       ",
"                                                                                                                                       ",
"                                                                                                                                       ",
"                                                                                                                                       ",
"----------           -------------- -----------------------         ---------------------------------------------------          ------",
"----------           -------------- -----------------------         ---------------------------------------------------          ------",
"----------           --------------------------------------         ---------------------------------------------------          ------",
"----------           --------------------------------------         ---------------------------------------------------          ------",
"----------           --------------------------------------         ---------------------------------------------------          ------",
"----------           --------------------------------------         ---------------------------------------------------          ------",
"----------           ----*OoooooO@=-----$ooooooooO=-*ooooooooooooX..OooooooO%=----$ooooooooO=----;:+ooo@=--------------          ------",
"----------           ----*OoOOOOooo%=---$ooOoooOO@=-*+OOOooooooooX .ooOOOOoooO=---$oOOoooOO@=---;$ooooooo%=------------          ------",
"----------           ----*Oo=---;$oo&------*+o&----------*+o.      .OO&----*+o%=-----*+o&-------$oO&--;#oo&------------          ------",
"----------           ----*Oo&----*+o&------;OO&----------;+oX      .oO=-----#oO=-----*+o&------*+o%-----$o%------------          ------",
"----------           ---;*oO=----;$o%------*+o&----------*+oX      .Oo=-----#OO=-----*+o&-----;#oO=-----;--------------          ------",
"----------           ----*Oo=----*+o&------;+o&----------;+oX      .oO=-----#oO=-----*+o&-----;$o@=--------------------          ------",
"----------           ----*OO=--;:+o%-------;+o&----------*+oX      .OO=----*Oo%------*+o&------$o%=--------------------          ------",
"----------           ---;*oooooooO&=-------*+o&----------*+oX      .OooOOOooo%=------;+o&=-----$o%---$oooo@=-----------          ------",
"----------           ----*OoOOOOooo%;------*+o&----------;+oX      .ooooooo@=--------*+o&-----;$o%--;$oooo@=-----------          ------",
"----------           ----*OO=----*+o%------;+O&----------*+oX      .OO=-;$o%;--------;+o&-----;$o%------#o@=-----------          ------",
"----------           ----#Oo=-----*+o&-----*+o&----------*+oX      .Oo&-;#Oo&--------;+o&------$o@=-----#o@------------          ------",
"----------           ----*OO=-----*$o%-----*+o&----------*+oX      .OO=---$o%=-------*+o&------#oo&-----#o@=-----------          ------",
"----------           ----#OO&-----*+o&-----*+o&----------*+oX      .OO=---*+o%-------*+o&------;+o%-----#o@=-----------          ------",
"----------           ----*Oo=----*+oO=-----;+o&----------;+oX      .oO=;---#oo&------*+o&-------#oo%=--*+o@=-----------          ------",
"----------           ----*OoOOOOoooo&--;$OOOooOOO@=------*+oX      .Oo=----;$o%=--$OOooooOo@=---;$oooooooo&------------          ------",
"----------           ----*Ooooooo@%=---;$ooooooooO=------*+oX      .OO&-----#Oo&-;$oooooooo@=-----*+ooo@:=-------------          ------",
"----------           --------------------------------------         ---------------------------------------------------          ------",
"----------           --------------------------------------         ---------------------------------------------------          ------",
"----------           --------------------------------------         ---------------------------------------------------          ------",
"----------           --------------------------------------         ---------------------------------------------------          ------",
"----------           --------------------------------------         ---------------------------------------------------          ------",
"----------           --------------------------------------         ---------------------------------------------------          ------",
"----------           --------------------------------------         ---------------------------------------------------          ------"
};
